<svg xmlns="http://www.w3.org/2000/svg" width="136" height="52" fill="none"><path fill="#6D6E76" d="M3.082 15h1.273l2.247-8.114h.08L8.929 15h1.273l2.784-10.182h-1.253l-2.128 8.293h-.1L7.339 4.818H5.946l-2.168 8.293H3.68L1.551 4.818H.298L3.082 15Zm13.772.16c1.55 0 2.684-.777 3.042-1.93l-1.133-.318c-.299.795-.99 1.193-1.91 1.193-1.376 0-2.326-.89-2.38-2.526h5.543v-.497c0-2.843-1.69-3.818-3.282-3.818-2.068 0-3.44 1.63-3.44 3.978 0 2.346 1.352 3.917 3.56 3.917Zm-2.382-4.595c.08-1.188.92-2.247 2.262-2.247 1.273 0 2.088.955 2.088 2.247h-4.35Zm13.513 4.614c1.332 0 2.029-.716 2.267-1.213h.06V15h1.173V9.969c0-2.426-1.85-2.705-2.824-2.705-1.153 0-2.466.398-3.062 1.79l1.113.398c.259-.557.87-1.154 1.989-1.154 1.079 0 1.61.572 1.61 1.551v.04c0 .567-.576.517-1.968.696-1.417.184-2.963.497-2.963 2.247 0 1.492 1.153 2.347 2.605 2.347Zm.18-1.054c-.936 0-1.612-.418-1.612-1.233 0-.895.816-1.173 1.73-1.293.497-.06 1.83-.198 2.029-.437v1.074c0 .954-.756 1.889-2.148 1.889Zm5.462.875H34.8v-4.832c0-1.034.815-1.79 1.929-1.79.313 0 .636.06.716.08V7.263c-.135-.01-.443-.02-.617-.02-.915 0-1.71.517-1.988 1.273h-.08V7.364h-1.133V15Zm8.178.16c1.551 0 2.684-.777 3.042-1.93l-1.133-.318c-.298.795-.99 1.193-1.91 1.193-1.376 0-2.326-.89-2.38-2.526h5.543v-.497c0-2.843-1.69-3.818-3.282-3.818-2.068 0-3.44 1.63-3.44 3.978 0 2.346 1.352 3.917 3.56 3.917Zm-2.382-4.595c.08-1.188.92-2.247 2.262-2.247 1.273 0 2.089.955 2.089 2.247h-4.35Z" opacity=".6"/><path fill="#6D6E76" d="M11.766 35.188v2.93H5.602V44H2.344V28.297h10.71v2.93H5.603v3.96h6.164Zm10.125-3.329c1.156 0 2.148.25 2.976.75a4.865 4.865 0 0 1 1.922 2.086c.453.875.68 1.89.68 3.047v1.266H18.89c.156.797.547 1.437 1.172 1.922.625.484 1.39.726 2.296.726.86 0 1.641-.172 2.344-.515.703-.344 1.266-.696 1.688-1.055l-.024 2.766c-.375.328-.937.664-1.687 1.007-.735.328-1.547.493-2.438.493-1.172 0-2.242-.266-3.21-.797a6.274 6.274 0 0 1-2.298-2.18c-.562-.922-.843-1.977-.843-3.164 0-1.156.257-2.211.773-3.164a6.15 6.15 0 0 1 2.133-2.297c.906-.594 1.937-.89 3.094-.89Zm-.07 2.602c-.735 0-1.352.227-1.852.68-.5.453-.844 1.062-1.032 1.828h5.672c-.062-.844-.375-1.469-.937-1.875a3.018 3.018 0 0 0-1.852-.633Zm13.054-2.602c.64 0 1.29.149 1.945.446a4.74 4.74 0 0 1 1.64 1.195v-1.336h2.977V44h-2.976v-1.992c-.344.64-.844 1.195-1.5 1.664-.656.453-1.422.68-2.297.68a5.08 5.08 0 0 1-2.648-.727c-.797-.484-1.438-1.188-1.922-2.11-.485-.921-.727-2.038-.727-3.35 0-1.313.242-2.438.727-3.376.5-.937 1.164-1.656 1.992-2.156a5.246 5.246 0 0 1 2.789-.774Zm.61 2.907c-.626 0-1.165.164-1.618.492a3.222 3.222 0 0 0-1.031 1.242 3.764 3.764 0 0 0-.375 1.664c0 .89.266 1.648.797 2.273.547.626 1.265.938 2.156.938.531 0 1.023-.14 1.477-.422a3.12 3.12 0 0 0 1.125-1.172c.297-.515.445-1.133.445-1.851v-1.688a5.264 5.264 0 0 0-1.383-1.078 3.259 3.259 0 0 0-1.594-.398Zm13.898-6.047v3.445h3.281v2.484h-3.281v5.11c0 .531.117.953.351 1.265.25.297.618.446 1.102.446.422 0 .781-.047 1.078-.14.313-.095.602-.227.867-.4v2.368a3.722 3.722 0 0 1-1.125.75c-.437.203-.992.305-1.664.305-1.062 0-1.93-.336-2.601-1.008-.657-.688-.985-1.625-.985-2.813v-5.883h-2.133v-1.523c.75-.266 1.438-.766 2.063-1.5.64-.734 1.148-1.703 1.523-2.906h1.524Zm16.898 3.445v7.055c0 1.047-.234 1.953-.703 2.718a4.692 4.692 0 0 1-1.922 1.735c-.797.406-1.703.61-2.718.61-1.032 0-1.954-.204-2.766-.61a4.729 4.729 0 0 1-1.899-1.734c-.453-.766-.68-1.672-.68-2.72v-7.054h3l.024 6.516c0 .922.211 1.61.633 2.062.422.453.984.68 1.688.68.687 0 1.242-.227 1.664-.68.437-.453.656-1.14.656-2.062v-6.516h3.023Zm10.852 3.328a3.158 3.158 0 0 0-1.57-.422c-.688 0-1.258.227-1.711.68-.454.438-.852.984-1.196 1.64V44H69.68V32.164h2.976v2.227a6.705 6.705 0 0 1 1.43-1.758c.562-.469 1.195-.703 1.898-.703.422 0 .805.07 1.149.21v3.352Zm7.476-3.633c1.157 0 2.149.25 2.977.75a4.865 4.865 0 0 1 1.922 2.086c.453.875.68 1.89.68 3.047v1.266h-8.579c.157.797.547 1.437 1.172 1.922.625.484 1.39.726 2.297.726.86 0 1.64-.172 2.344-.515.703-.344 1.266-.696 1.687-1.055l-.023 2.766c-.375.328-.938.664-1.688 1.007-.734.328-1.546.493-2.437.493-1.172 0-2.242-.266-3.211-.797a6.274 6.274 0 0 1-2.297-2.18c-.562-.922-.844-1.977-.844-3.164 0-1.156.258-2.211.774-3.164a6.15 6.15 0 0 1 2.133-2.297c.906-.594 1.937-.89 3.093-.89Zm-.07 2.602c-.734 0-1.352.227-1.852.68-.5.453-.843 1.062-1.03 1.828h5.671c-.062-.844-.375-1.469-.937-1.875a3.018 3.018 0 0 0-1.852-.633Zm19.617-7.336V44h-2.976v-1.992c-.344.64-.844 1.195-1.5 1.664-.657.453-1.422.68-2.297.68a5.08 5.08 0 0 1-2.649-.727c-.796-.484-1.437-1.188-1.921-2.11-.485-.921-.727-2.038-.727-3.35 0-1.313.242-2.438.727-3.376.5-.937 1.164-1.656 1.992-2.156a5.246 5.246 0 0 1 2.789-.774c.64 0 1.289.149 1.945.446a4.75 4.75 0 0 1 1.641 1.195v-6.375h2.976Zm-5.953 7.664c-.625 0-1.164.164-1.617.492a3.222 3.222 0 0 0-1.031 1.242c-.25.5-.375 1.047-.375 1.641 0 .89.265 1.648.797 2.273.546.626 1.265.938 2.156.938.531 0 1.023-.14 1.476-.422a3.119 3.119 0 0 0 1.125-1.172c.297-.515.446-1.133.446-1.851v-1.688a4.864 4.864 0 0 0-1.383-1.054 3.26 3.26 0 0 0-1.594-.399ZM117.328 26c.563 0 1.047.203 1.453.61.407.39.61.859.61 1.406 0 .53-.203 1-.61 1.406-.406.406-.89.61-1.453.61a1.984 1.984 0 0 1-1.453-.61c-.391-.406-.586-.875-.586-1.406 0-.547.195-1.016.586-1.407.406-.406.891-.609 1.453-.609Zm1.734 6.164V44h-2.976v-9.305h-1.898v-2.53h4.874Zm6.727 0v1.688c.359-.485.844-.938 1.453-1.36.625-.422 1.336-.633 2.133-.633 1.203 0 2.211.407 3.023 1.22.813.812 1.219 2.03 1.219 3.655V44h-2.976l-.024-6.867c0-.797-.195-1.39-.586-1.781-.375-.391-.898-.586-1.57-.586-.531 0-1.031.172-1.5.515-.453.344-.844.75-1.172 1.219V44h-2.977V32.164h2.977Z"/></svg>