<svg xmlns="http://www.w3.org/2000/svg" width="112" height="17" fill="none"><g clip-path="url(#a)"><path fill="#232536" d="M16 8a8 8 0 1 0-9.25 7.903v-5.59H4.719V8H6.75V6.237c0-2.005 1.194-3.112 3.022-3.112.875 0 1.79.156 1.79.156V5.25h-1.008c-.994 0-1.304.617-1.304 1.25V8h2.219l-.355 2.313H9.25v5.59A8.002 8.002 0 0 0 16 8Z"/></g><path fill="#232536" d="M37.033 15.407c6.037 0 9.34-5.315 9.34-9.923 0-.15-.004-.302-.01-.451A6.913 6.913 0 0 0 48 3.227a6.177 6.177 0 0 1-1.884.548 3.477 3.477 0 0 0 1.443-1.929 6.369 6.369 0 0 1-2.083.847 3.232 3.232 0 0 0-1.863-1.053 3.12 3.12 0 0 0-2.081.367 3.417 3.417 0 0 0-1.443 1.635 3.694 3.694 0 0 0-.21 2.23 8.897 8.897 0 0 1-3.746-1.056 9.453 9.453 0 0 1-3.018-2.585 3.682 3.682 0 0 0-.358 2.54 3.5 3.5 0 0 0 1.374 2.115 3.14 3.14 0 0 1-1.487-.435v.043c0 .805.261 1.586.742 2.21a3.254 3.254 0 0 0 1.892 1.21c-.483.14-.99.16-1.481.06.21.692.617 1.298 1.167 1.733.55.434 1.213.676 1.898.69a6.34 6.34 0 0 1-4.078 1.494 6.2 6.2 0 0 1-.784-.05 8.918 8.918 0 0 0 5.033 1.566Z"/><g fill="#232536" clip-path="url(#b)"><path d="M72 1.44c2.138 0 2.39.01 3.231.048.782.034 1.203.165 1.485.274.372.144.64.32.918.597.282.282.454.547.597.92.11.28.24.705.275 1.484.038.843.047 1.096.047 3.23 0 2.138-.01 2.391-.047 3.232-.034.781-.165 1.203-.275 1.484-.143.372-.319.641-.597.92a2.46 2.46 0 0 1-.918.596c-.282.11-.707.24-1.485.275-.843.037-1.097.047-3.231.047-2.138 0-2.39-.01-3.231-.047-.782-.034-1.203-.166-1.485-.275a2.474 2.474 0 0 1-.918-.597 2.46 2.46 0 0 1-.597-.919c-.11-.28-.24-.706-.275-1.484-.038-.844-.047-1.097-.047-3.231 0-2.138.01-2.39.047-3.231.034-.782.165-1.204.275-1.485.143-.372.319-.64.597-.919.28-.28.546-.453.918-.597.282-.109.707-.24 1.485-.274.84-.038 1.093-.047 3.231-.047ZM72 0c-2.172 0-2.444.01-3.297.047-.85.037-1.434.175-1.94.372a3.904 3.904 0 0 0-1.42.925c-.446.444-.718.89-.924 1.415-.197.51-.335 1.091-.372 1.941C64.009 5.556 64 5.828 64 8c0 2.172.01 2.444.047 3.297.037.85.175 1.434.372 1.94.206.529.478.976.925 1.42.444.443.89.718 1.415.921.51.197 1.091.335 1.941.372.853.038 1.125.047 3.297.047s2.444-.01 3.297-.047c.85-.037 1.434-.175 1.94-.372a3.91 3.91 0 0 0 1.416-.922 3.91 3.91 0 0 0 .922-1.415c.197-.51.334-1.091.372-1.941.037-.853.047-1.125.047-3.297s-.01-2.444-.047-3.297c-.038-.85-.175-1.434-.372-1.94a3.748 3.748 0 0 0-.916-1.422 3.911 3.911 0 0 0-1.415-.922C76.73.225 76.15.088 75.3.05 74.444.01 74.172 0 72 0Z"/><path d="M72 3.89a4.11 4.11 0 0 0 0 8.22 4.11 4.11 0 0 0 0-8.22Zm0 6.776a2.666 2.666 0 1 1 0-5.332 2.666 2.666 0 0 1 0 5.332ZM77.231 3.728a.96.96 0 1 1-1.919 0 .96.96 0 0 1 1.92 0Z"/></g><g clip-path="url(#c)"><path fill="#232536" d="M110.816 0H97.181C96.528 0 96 .516 96 1.153v13.69A1.17 1.17 0 0 0 97.181 16h13.635c.653 0 1.184-.519 1.184-1.153V1.153C112 .516 111.469 0 110.816 0Zm-10.069 13.634h-2.375V5.997h2.375v7.637Zm-1.188-8.678a1.376 1.376 0 1 1-.004-2.751 1.376 1.376 0 0 1 .004 2.751Zm10.075 8.678h-2.372V9.922c0-.885-.015-2.025-1.234-2.025-1.234 0-1.422.966-1.422 1.962v3.775h-2.368V5.997h2.274V7.04h.032c.315-.6 1.09-1.235 2.244-1.235 2.403 0 2.846 1.582 2.846 3.638v4.19Z"/></g><defs><clipPath id="a"><path fill="#fff" d="M0 0h16v16H0z"/></clipPath><clipPath id="b"><path fill="#fff" d="M64 0h16v16H64z"/></clipPath><clipPath id="c"><path fill="#fff" d="M96 0h16v16H96z"/></clipPath></defs></svg>